<svg id="a48a6184-c650-42ed-b030-e2eec3e3b4b5" data-name="Layer 1" xmlns="http://www.w3.org/2000/svg" viewBox="0 0 237.63 237.63">
  <g>
    <path d="M20.58,237.63S0,237.63,0,217.05V20.58S0,0,20.58,0H217.05s20.58,0,20.58,20.58V217.05s0,20.58-20.58,20.58Z" style="fill: #db0007"/>
    <path d="M153.34,48.83c-13.94,0-26.38,18.58-34.51,47.62-8.13-29-20.57-47.62-34.51-47.62-24.5,0-44.37,61.81-44.37,138H59.67c0-70.79,11-128.17,24.65-128.17S109,111.67,109,177h19.72c0-65.34,11-118.31,24.65-118.31S178,116.08,178,186.87h19.72C197.71,110.64,177.84,48.83,153.34,48.83Z" style="fill: #ffbc0d"/>
  </g>
</svg>
